<?xml version="1.0" encoding="UTF-8" standalone="no"?>
<svg
   xmlns:dc="http://purl.org/dc/elements/1.1/"
   xmlns:cc="http://creativecommons.org/ns#"
   xmlns:rdf="http://www.w3.org/1999/02/22-rdf-syntax-ns#"
   xmlns:svg="http://www.w3.org/2000/svg"
   xmlns="http://www.w3.org/2000/svg"
   xmlns:sodipodi="http://sodipodi.sourceforge.net/DTD/sodipodi-0.dtd"
   xmlns:inkscape="http://www.inkscape.org/namespaces/inkscape"
   stroke-miterlimit="10"
   font-weight="normal"
   font-style="normal"
   font-size="12"
   id="svg3387"
   version="1.1"
   inkscape:version="0.91 r13725"
   sodipodi:docname="bullhorn.svg"
   width="14.000001"
   height="14"
   style="font-style:normal;font-weight:normal;font-size:12px;font-family:Dialog;color-interpolation:auto;fill:#000000;fill-opacity:1;stroke:#000000;stroke-width:1;stroke-linecap:square;stroke-linejoin:miter;stroke-miterlimit:10;stroke-dasharray:none;stroke-dashoffset:0;stroke-opacity:1;color-rendering:auto;image-rendering:auto;shape-rendering:auto;text-rendering:auto">
  <metadata
     id="metadata3398">
    <rdf:RDF>
      <cc:Work
         rdf:about="">
        <dc:format>image/svg+xml</dc:format>
        <dc:type
           rdf:resource="http://purl.org/dc/dcmitype/StillImage" />
        <dc:title></dc:title>
      </cc:Work>
    </rdf:RDF>
  </metadata>
  <sodipodi:namedview
     pagecolor="#ffffff"
     bordercolor="#666666"
     borderopacity="1"
     objecttolerance="10"
     gridtolerance="10"
     guidetolerance="10"
     inkscape:pageopacity="0"
     inkscape:pageshadow="2"
     inkscape:window-width="1920"
     inkscape:window-height="1056"
     id="namedview3396"
     showgrid="false"
     fit-margin-top="0"
     fit-margin-left="0"
     fit-margin-right="0"
     fit-margin-bottom="0"
     inkscape:zoom="1"
     inkscape:cx="-39.130239"
     inkscape:cy="7.0000029"
     inkscape:window-x="0"
     inkscape:window-y="24"
     inkscape:window-maximized="1"
     inkscape:current-layer="svg3387" />
  <!--Unicode Character 'BULLHORN' (U+1F56B)-->
  <defs
     id="genericDefs" />
  <g
     id="g3390"
     transform="matrix(0.06847014,0,0,0.06777098,-2.9945005,-7.6528278)">
    <g
       id="g3392">
      <path
         d="m 248.2031,226.6875 q 0,15.3281 -2.9531,27.4219 -4.5,18.5625 -14.7656,18.5625 -2.6719,0 -11.6719,-6.0469 -10.8281,-7.3125 -41.9063,-12.375 -26.1562,-4.2188 -44.8593,-4.2188 -5.2031,0 -5.2031,8.5782 0,2.9531 2.25,8.4375 2.25,5.4843 2.25,8.3672 0,2.8828 3.5859,6.9609 3.5859,4.0781 3.5859,6.0469 0,0.5625 -0.3515,1.6875 -0.3516,1.125 -0.3516,1.6875 0,1.6875 3.3047,5.625 3.3047,3.9375 3.3047,6.3281 0,1.125 -1.0547,3.1641 -1.0547,2.039 -1.0547,3.164 0,1.5469 1.7578,3.8672 1.7578,2.3203 1.7578,3.0235 0,2.5312 -6.75,2.5312 -14.9062,0 -20.9531,-8.7188 -3.6562,-5.3437 -7.1719,-22.3593 -6.4687,-31.7813 -22.3593,-31.7813 -0.5626,0 -1.7579,0.211 -1.1953,0.2109 -1.7578,0.2109 -18,0 -18,-32.9063 0,-19.4062 18.4219,-27.1406 8.0156,-2.9531 28.5469,-11.1094 18.8437,-7.7343 43.7343,-25.875 22.6407,-16.4531 31.3594,-27.7031 3.7969,-19.4062 15.3282,-19.4062 13.7812,0 26.5781,30.375 17.1562,40.6406 17.1562,83.3906 z M 75.2344,255.5156 q -15.4688,-0.9844 -21.5156,-3.9375 -9.9844,-4.7812 -9.9844,-17.8593 0,-12.7969 8.1562,-18.9844 2.9532,-1.6875 18.8438,-9.9844 -6.75,7.4531 -6.75,22.7812 0,18.5626 11.25,27.9844 z m 137.1094,-38.25 q 0,-14.3437 -4.6407,-27 -5.625,-15.3281 -16.0312,-21.5156 5.4843,50.0625 16.5937,75.0938 4.0782,-12.375 4.0782,-26.5782 z m -0.1407,40.9219 q -12.5156,-18.8437 -19.8281,-47.6719 -6.75,-26.4375 -6.75,-51.3281 l 1.9688,-16.0313 q -10.125,12.9376 -26.0157,22.9219 -9.8437,5.9063 -29.6719,17.8594 -17.4374,10.6875 -17.4374,25.1719 0,31.2187 21.0937,34.7344 0.7031,0.1406 15.6094,0.7031 34.875,1.4062 61.0312,13.6406 z M 64.6875,249.6094 q -5.4844,-15.3282 -5.4844,-24.0469 0,-6.0469 1.5469,-10.2656 l -3.0938,0.8437 q -1.8281,6.4688 -1.8281,13.7813 0,6.0469 4.9219,19.6875 l 3.9375,0 z m -7.7344,-0.8438 q -5.0625,-12.0937 -5.0625,-17.2968 0,-5.2032 1.125,-12.9376 l -3.9375,2.6719 q -0.9843,5.625 -0.9843,10.5469 0,6.4688 5.4843,15.75 l 3.375,1.2656 z"
         id="path3394"
         inkscape:connector-curvature="0"
         style="stroke:none" />
    </g>
  </g>
</svg>
