<svg version="1.1" id="LogoTWC2018" xmlns="http://www.w3.org/2000/svg" xmlns:xlink="http://www.w3.org/1999/xlink" x="0px" y="0px" viewBox="0 0 763.3 326.6" style="enable-background:new 0 0 763.3 326.6;" xml:space="preserve">
<style type="text/css">
	.st0{fill:#EEAA11;}
	.st1{fill:#2E3133;}
	.st2{fill:#DE7101;}
	.st3{fill:#FFFFFF;}
</style>
<polygon class="st0" points="414.4,145.2 364.1,161.9 414.4,179.4 464.7,161.9 "></polygon>
<g>
	<g id="TheWebConference">
		<g id="Typographie_1_">
			<path class="st1" d="M375,132.6v-35h-10.9v-8.7h30.6v8.7h-10.8v35H375z"></path>
			<path class="st1" d="M423.2,132.6v-17.5h-13.1v17.5h-8.8V88.7h8.8v17.5h13.1V88.7h8.8v43.8h-8.8V132.6z"></path>
			<path class="st1" d="M441.7,132.6V88.7h23v8.8h-14.2v8.8H462v8.8h-11.5v8.8h14.2v8.8L441.7,132.6L441.7,132.6z"></path>
			<path class="st1" d="M517.8,178.6l-36.2-89.9h19.9l17.8,45.2l17.3-44.3h0.8l17.3,44.3l17.8-45.2h19.9l-36.1,89.9h-3.2l-16.1-39
				l-16,39.1L517.8,178.6L517.8,178.6z"></path>
			<path class="st1" d="M606.6,178.6V88.8h44.9v17.9h-27v17.9h23.6v17.9h-23.6v17.9H653v17.9L606.6,178.6L606.6,178.6z"></path>
			<path class="st1" d="M671.3,88.7h35.6c16,0,25.9,11.4,25.5,27.3c-0.3,6.8-2.6,13.8-8.3,17.8c5.9,4,9.3,10.9,9.3,17.9
				c0,15-12,27-26.5,27h-35.6V88.7L671.3,88.7z M689.3,124.8h10.8h5.1c5.1,0,8.3-4.1,8.3-9.1s-3.2-9.1-8.3-9.1h-16v18.2H689.3z
				 M689.3,160.8h10.8h5.1c5.1,0,9.1-4,9.1-9.1s-3.9-8.9-9.1-8.9h-16v18H689.3z"></path>
			<path class="st1" d="M386.6,203c-17.6,0-17.6,27,0,27c3.8,0,6.9-1.1,8.6-2l1.2,9.2c-2.7,1.1-6.6,1.9-9.7,1.9c-30.1,0-30-45,0-45
				c3.1,0,6.1,0.6,8.8,1.8l-1,9.2C392.7,204.1,390.5,203,386.6,203z"></path>
			<path class="st1" d="M424.7,193.9c30.6,0,30.6,45.7,0,45.7C394.3,239.6,394.3,193.9,424.7,193.9z M424.7,203
				c-17.8,0-17.8,27.4,0,27.4C442.5,230.5,442.5,203,424.7,203z"></path>
			<path class="st1" d="M464.8,239h-8.9v-45.2h2.3l22.4,26.1v-25h9V240h-2.3l-22.4-25L464.8,239L464.8,239L464.8,239z"></path>
			<path class="st1" d="M508.5,203.6v8.9h11.3v8.9h-11.3v17.8h-8.8v-44.4h22.1v8.9L508.5,203.6L508.5,203.6z"></path>
			<path class="st1" d="M529.1,239v-44.4h22.2v8.9H538v8.9h11.7v8.9H538v8.9h14v8.9L529.1,239L529.1,239z"></path>
			<path class="st1" d="M582.4,239l-9-16.9h-4.3V239h-8.9v-44.4h17.5c15.8,0,17.4,22.2,4.3,26.1l10.3,18.3L582.4,239L582.4,239z
				 M569.2,213.5h7.8c6,0,6-9.9,0-9.9h-7.8V213.5z"></path>
			<path class="st1" d="M598.3,239v-44.4h22.2v8.9h-13.4v8.9h11.7v8.9h-11.7v8.9h14.1v8.9L598.3,239L598.3,239z"></path>
			<path class="st1" d="M638.5,239h-8.9v-45.2h2.3l22.4,26.1v-25h9V240H661l-22.4-25L638.5,239L638.5,239z"></path>
			<path class="st1" d="M693.8,203c-17.6,0-17.6,27,0,27c3.8,0,6.9-1.1,8.6-2l1.2,9.2c-2.7,1.1-6.6,1.9-9.7,1.9c-30.1,0-30-45,0-45
				c3.1,0,6.1,0.6,8.8,1.8l-1,9.2C699.8,204.1,697.6,203,693.8,203z"></path>
			<path class="st1" d="M710.5,239v-44.4h23v8.9h-14.1v8.9h11.7v8.9h-11.7v8.9h14.1v8.9L710.5,239L710.5,239z"></path>
		</g>
	</g>
	<g id="Pictogramme">
		<g id="Couronne">
			<polygon class="st0" points="103.8,292.6 143.7,292.6 83.7,257.9 			"></polygon>
			<polygon class="st0" points="252.7,33.9 212.8,34 272.8,68.7 			"></polygon>
			<polygon class="st0" points="103.5,34.1 83.5,68.7 143.6,34.1 			"></polygon>
			<polygon class="st0" points="253,292.5 273,257.8 212.9,292.5 			"></polygon>
			<polygon class="st0" points="29,163.4 49,198 49,128.7 			"></polygon>
			<polygon class="st0" points="327.6,163.1 307.6,128.5 307.6,197.9 			"></polygon>
			<polygon class="st0" points="49,237.9 83.7,257.9 49,198 			"></polygon>
			<polygon class="st0" points="178.3,312.5 212.9,292.5 143.7,292.6 			"></polygon>
			<polygon class="st0" points="178.3,14 143.6,34.1 212.8,34 			"></polygon>
			<polygon class="st0" points="307.6,197.9 273,257.8 307.6,237.9 			"></polygon>
			<polygon class="st0" points="307.6,88.6 272.8,68.7 307.6,128.5 			"></polygon>
			<polygon class="st0" points="49,88.6 49,128.7 83.5,68.7 			"></polygon>
			<polygon class="st2" points="307.6,128.5 272.8,68.7 212.8,34 143.6,34.1 83.5,68.7 49,128.7 49,198 83.7,257.9 143.7,292.6 
				212.9,292.5 273,257.8 307.6,197.9 			"></polygon>
		</g>
		<polygon id="France" class="st3" points="264.3,213 264.3,113.6 178.3,63.9 92.2,113.6 92.2,213 178.3,262.7 		"></polygon>
		<g id="Visage">
			<path class="st1" d="M177.5,205.9l-22.8-26.5h48L180,205.9H177.5z"></path>
			<polygon class="st1" points="149.8,164.4 139.1,141.5 114.7,143.1 120.9,161.9 			"></polygon>
			<polygon class="st1" points="207.2,164.4 217,141.5 242.6,143.1 236.3,161.9 			"></polygon>
		</g>
	</g>
</g>
</svg>
